<?xml version="1.0" encoding="UTF-8" standalone="no"?>
<!DOCTYPE svg PUBLIC "-//W3C//DTD SVG 1.1//EN" "http://www.w3.org/Graphics/SVG/1.1/DTD/svg11.dtd">
<svg width="100%" height="100%" viewBox="0 0 800 300" version="1.1" xmlns="http://www.w3.org/2000/svg" xmlns:xlink="http://www.w3.org/1999/xlink" xml:space="preserve" xmlns:serif="http://www.serif.com/" style="fill-rule:evenodd;clip-rule:evenodd;stroke-linejoin:round;stroke-miterlimit:2;">
    <g transform="matrix(1,0,0,1,-183.714,-478.405)">
        <g id="Layer1">
            <g>
                <path d="M341.938,708.325C334.642,710.437 325.234,712.405 313.714,714.229C302.194,716.053 290.098,716.965 277.426,716.965C264.562,716.965 253.858,715.237 245.314,711.781C236.77,708.325 230.002,703.477 225.01,697.237C220.018,690.997 216.466,683.557 214.354,674.917C212.242,666.277 211.186,656.773 211.186,646.405L211.186,562.021L254.098,562.021L254.098,641.221C254.098,655.045 255.922,665.029 259.57,671.173C263.218,677.317 270.034,680.389 280.018,680.389C283.09,680.389 286.354,680.245 289.81,679.957C293.266,679.669 296.338,679.333 299.026,678.949L299.026,562.021L341.938,562.021L341.938,708.325Z" style="fill:rgb(84,84,84);fill-rule:nonzero;"/>
                <path d="M479.314,638.917C479.314,625.669 476.338,615.061 470.386,607.093C464.434,599.125 455.602,595.141 443.89,595.141C440.05,595.141 436.498,595.285 433.234,595.573C429.97,595.861 427.282,596.197 425.17,596.581L425.17,674.053C427.858,675.781 431.362,677.221 435.682,678.373C440.002,679.525 444.37,680.101 448.786,680.101C469.138,680.101 479.314,666.373 479.314,638.917ZM523.09,637.765C523.09,649.477 521.65,660.133 518.77,669.733C515.89,679.333 511.666,687.589 506.098,694.501C500.53,701.413 493.618,706.789 485.362,710.629C477.106,714.469 467.602,716.389 456.85,716.389C450.898,716.389 445.33,715.813 440.146,714.661C434.962,713.509 429.97,711.877 425.17,709.765L425.17,766.789L382.258,766.789L382.258,567.205C386.098,566.053 390.514,564.949 395.506,563.893C400.498,562.837 405.73,561.925 411.202,561.157C416.674,560.389 422.242,559.765 427.906,559.285C433.57,558.805 438.994,558.565 444.178,558.565C456.658,558.565 467.794,560.437 477.586,564.181C487.378,567.925 495.634,573.205 502.354,580.021C509.074,586.837 514.21,595.141 517.762,604.933C521.314,614.725 523.09,625.669 523.09,637.765Z" style="fill:rgb(84,84,84);fill-rule:nonzero;"/>
                <path d="M616.69,716.389C604.21,716.197 594.082,714.853 586.306,712.357C578.53,709.861 572.386,706.357 567.874,701.845C563.362,697.333 560.29,691.861 558.658,685.429C557.026,678.997 556.21,671.749 556.21,663.685L556.21,496.933L599.122,490.021L599.122,655.045C599.122,658.885 599.41,662.341 599.986,665.413C600.562,668.485 601.666,671.077 603.298,673.189C604.93,675.301 607.282,677.029 610.354,678.373C613.426,679.717 617.554,680.581 622.738,680.965L616.69,716.389Z" style="fill:rgb(84,84,84);fill-rule:nonzero;"/>
                <path d="M640.018,638.917C640.018,625.477 642.082,613.717 646.21,603.637C650.338,593.557 655.762,585.157 662.482,578.437C669.202,571.717 676.93,566.629 685.666,563.173C694.402,559.717 703.378,557.989 712.594,557.989C734.098,557.989 751.09,564.565 763.57,577.717C776.05,590.869 782.29,610.213 782.29,635.749C782.29,638.245 782.194,640.981 782.002,643.957C781.81,646.933 781.618,649.573 781.426,651.877L684.082,651.877C685.042,660.709 689.17,667.717 696.466,672.901C703.762,678.085 713.554,680.677 725.842,680.677C733.714,680.677 741.442,679.957 749.026,678.517C756.61,677.077 762.802,675.301 767.602,673.189L773.362,708.037C771.058,709.189 767.986,710.341 764.146,711.493C760.306,712.645 756.034,713.653 751.33,714.517C746.626,715.381 741.586,716.101 736.21,716.677C730.834,717.253 725.458,717.541 720.082,717.541C706.45,717.541 694.594,715.525 684.514,711.493C674.434,707.461 666.082,701.941 659.458,694.933C652.834,687.925 647.938,679.621 644.77,670.021C641.602,660.421 640.018,650.053 640.018,638.917ZM740.818,622.501C740.626,618.853 740.002,615.301 738.946,611.845C737.89,608.389 736.258,605.317 734.05,602.629C731.842,599.941 729.058,597.733 725.698,596.005C722.338,594.277 718.162,593.413 713.17,593.413C708.37,593.413 704.242,594.229 700.786,595.861C697.33,597.493 694.45,599.653 692.146,602.341C689.842,605.029 688.066,608.149 686.818,611.701C685.57,615.253 684.658,618.853 684.082,622.501L740.818,622.501Z" style="fill:rgb(84,84,84);fill-rule:nonzero;"/>
                <path d="M912.466,636.613C912.466,608.965 902.29,595.141 881.938,595.141C877.522,595.141 873.154,595.717 868.834,596.869C864.514,598.021 861.01,599.461 858.322,601.189L858.322,679.237C860.434,679.621 863.122,679.957 866.386,680.245C869.65,680.533 873.202,680.677 877.042,680.677C888.754,680.677 897.586,676.645 903.538,668.581C909.49,660.517 912.466,649.861 912.466,636.613ZM956.242,637.765C956.242,649.861 954.466,660.805 950.914,670.597C947.362,680.389 942.226,688.741 935.506,695.653C928.786,702.565 920.53,707.893 910.738,711.637C900.946,715.381 889.81,717.253 877.33,717.253C872.146,717.253 866.722,717.013 861.058,716.533C855.394,716.053 849.826,715.429 844.354,714.661C838.882,713.893 833.65,712.981 828.658,711.925C823.666,710.869 819.25,709.765 815.41,708.613L815.41,496.933L858.322,490.021L858.322,565.477C863.122,563.365 868.114,561.733 873.298,560.581C878.482,559.429 884.05,558.853 890.002,558.853C900.754,558.853 910.258,560.725 918.514,564.469C926.77,568.213 933.682,573.541 939.25,580.453C944.818,587.365 949.042,595.669 951.922,605.365C954.802,615.061 956.242,625.861 956.242,637.765Z" style="fill:rgb(84,84,84);fill-rule:nonzero;"/>
            </g>
        </g>
    </g>
</svg>
